# xmcd
#
# Track frame offsets:
#	150
#	14985
#	25636
#	43097
#	52751
#	65177
#	82268
#	98424
#	114490
#	134400
#	147978
#
# Disc length: 1981
#
# Revision: 2
# Processed by: cddbd v1.5.1PL0 Copyright (c) Steve Scherf et al.
# Submitted via: VisiTrax 2.9.5.180 - For more info visit www.synapsa.com
# Normalized: r1:DSETVAR1
#
DISCID=9a07bb0b
DTITLE=Various Artist - CDX  175  November 1997
DYEAR=1997
DGENRE=Country
TTITLE0=Brooks and Dunn - He's Got You
TTITLE1=Garth Brooks - Long Neck Bottle
TTITLE2=J C Jones - One Night
TTITLE3=Sara Evans - Shame About That
TTITLE4=River Road - Somebody Will
TTITLE5=Steve Earle - Telephone Road
TTITLE6=Reba McEntire - What If
TTITLE7=Wynonna - When Love Starts Talkin'
TTITLE8=Kenny Isaacs - Pieces Of You
TTITLE9=Lonnie Wayne Flemmer - Another White Trash Christmas
TTITLE10=Wynonna - Holiday Liner
EXTD=YEAR: 1997
EXTT0=
EXTT1=
EXTT2=
EXTT3=
EXTT4=
EXTT5=
EXTT6=
EXTT7=
EXTT8=
EXTT9=
EXTT10=
PLAYORDER=
